# Blender 3.5.1
# www.blender.org
mtllib walls.mtl
o walls
v 0.000000 4.000000 0.000000
v 6.000000 4.000000 0.000000
v 6.000000 0.000000 0.000000
v 0.000000 0.000000 0.000000
v 3.500000 0.000000 2.500000
v 3.500000 4.000000 2.500000
v 2.500000 4.000000 2.500000
v 2.500000 0.000000 2.500000
vn -0.7071 -0.0000 0.7071
vn 0.7071 -0.0000 0.7071
vn -0.0000 -1.0000 -0.0000
vn -0.0000 1.0000 -0.0000
vt 0.000000 0.000000
vt 0.000000 0.000000
vt 0.000000 0.000000
vt 0.000000 0.000000
vt 0.000000 0.000000
vt 0.000000 0.000000
vt 0.000000 0.000000
vt 0.000000 0.000000
s 0
f 4/4/1 8/8/1 7/7/1 1/1/1
f 2/2/2 6/6/2 5/5/2 3/3/2
f 8/8/3 4/4/3 3/3/3
f 8/8/3 3/3/3 5/5/3
f 6/6/4 2/2/4 1/1/4
f 6/6/4 1/1/4 7/7/4
