# Blender 3.5.1
# www.blender.org
mtllib walls.mtl
o walls
v 6.000000 0.000000 2.500000
v 6.000000 0.000000 0.000000
v 6.000000 4.000000 0.000000
v 0.000000 4.000000 0.000000
v 0.000000 0.000000 0.000000
v 6.000000 4.000000 2.500000
v 0.000000 4.000000 2.500000
v 0.000000 0.000000 2.500000
vn -0.0000 1.0000 -0.0000
vn -1.0000 -0.0000 -0.0000
vn 1.0000 -0.0000 -0.0000
vn -0.0000 -1.0000 -0.0000
vt 0.000000 0.000000
vt 0.000000 0.000000
vt 0.000000 0.000000
vt 0.000000 0.000000
vt 0.000000 0.000000
vt 0.000000 0.000000
vt 0.000000 0.000000
vt 0.000000 0.000000
s 0
f 3/3/1 4/4/1 7/7/1 6/6/1
f 4/4/2 5/5/2 8/8/2 7/7/2
f 2/2/3 3/3/3 6/6/3 1/1/3
f 5/5/4 2/2/4 1/1/4 8/8/4
